<svg width="21" height="20" viewBox="0 0 21 20" fill="none" xmlns="http://www.w3.org/2000/svg">
<path d="M8.13188 4.76019L7.79633 4.00521C7.57693 3.51157 7.46723 3.26473 7.30317 3.07584C7.09756 2.83912 6.82956 2.66495 6.52973 2.57321C6.29049 2.5 6.02038 2.5 5.48017 2.5C4.68992 2.5 4.2948 2.5 3.96311 2.65191C3.57239 2.83085 3.21953 3.2194 3.07894 3.6255C2.95959 3.97024 2.99378 4.32453 3.06215 5.03308C3.78992 12.5752 7.92485 16.7101 15.4669 17.4378C16.1755 17.5062 16.5298 17.5404 16.8745 17.4211C17.2806 17.2805 17.6691 16.9276 17.8481 16.5369C18 16.2052 18 15.8101 18 15.0198C18 14.4796 18 14.2095 17.9268 13.9702C17.835 13.6704 17.6609 13.4024 17.4241 13.1968C17.2353 13.0327 16.9885 12.9231 16.4948 12.7037L15.7398 12.3681C15.2052 12.1305 14.9379 12.0117 14.6663 11.9859C14.4063 11.9612 14.1442 11.9977 13.9009 12.0924C13.6466 12.1914 13.422 12.3787 12.9725 12.7532C12.5251 13.126 12.3015 13.3124 12.0281 13.4122C11.7858 13.5007 11.4655 13.5336 11.2103 13.4959C10.9224 13.4535 10.702 13.3358 10.261 13.1001C8.88938 12.3671 8.13294 11.6107 7.39989 10.2389C7.16428 9.79808 7.04648 9.57758 7.00406 9.28975C6.96645 9.0345 6.99923 8.71417 7.08775 8.47192C7.1876 8.19857 7.37401 7.97488 7.74682 7.5275C8.12135 7.07807 8.30861 6.85335 8.40762 6.59909C8.50237 6.35578 8.53885 6.09367 8.51412 5.83373C8.48828 5.5621 8.36948 5.2948 8.13188 4.76019Z" stroke="#06C167" stroke-width="1.25" stroke-linecap="round"/>
</svg>
