<svg width="19" height="20" viewBox="0 0 19 20" fill="none" xmlns="http://www.w3.org/2000/svg">
<path d="M9.5 17.6059C12.7792 17.6059 15.4375 14.9476 15.4375 11.6684C15.4375 10.8768 15.4375 9.29342 13.8542 7.31425C13.8542 7.31425 13.7753 9.57335 12.2124 9.24655C9.68454 8.71803 12.9478 3.75409 8.3125 1.77258C8.3125 5.73092 3.5625 6.91842 3.5625 11.6684C3.5625 14.9476 6.22081 17.6059 9.5 17.6059Z" fill="#FF5200" stroke="#461004" stroke-width="0.6" stroke-linejoin="round"/>
<path d="M9.49935 15.2318C11.0296 15.2318 12.2702 13.6368 12.2702 11.6693C9.73685 12.6193 8.83965 10.4318 8.70768 8.89758C7.56314 9.33553 6.72852 11.1345 6.72852 12.0642C6.72852 14.0318 7.96906 15.2318 9.49935 15.2318Z" fill="#FF8B32" stroke="#FF8B32" stroke-width="1.1875" stroke-linejoin="round"/>
</svg>
