<svg width="25" height="25" viewBox="0 0 25 25" fill="none" xmlns="http://www.w3.org/2000/svg">
<g clip-path="url(#clip0_319_20)">
<path d="M24.2663 12.7238C24.2663 11.908 24.2001 11.0879 24.059 10.2854H12.7402V14.9064H19.222C18.953 16.3967 18.0888 17.7151 16.8233 18.5529V21.5512H20.6903C22.9611 19.4612 24.2663 16.3747 24.2663 12.7238Z" fill="#4285F4"/>
<path d="M12.7391 24.4481C15.9756 24.4481 18.705 23.3854 20.6936 21.5512L16.8266 18.5528C15.7507 19.2848 14.3618 19.6992 12.7435 19.6992C9.61291 19.6992 6.95849 17.5872 6.00607 14.7476H2.01562V17.8385C4.05274 21.8907 8.20192 24.4481 12.7391 24.4481Z" fill="#34A853"/>
<path d="M6.00277 14.7475C5.50011 13.2571 5.50011 11.6433 6.00277 10.153V7.06201H2.01674C0.314734 10.4528 0.314734 14.4476 2.01674 17.8384L6.00277 14.7475Z" fill="#FBBC04"/>
<path d="M12.7391 5.19693C14.4499 5.17047 16.1034 5.81423 17.3425 6.99593L20.7685 3.56988C18.5991 1.53277 15.7198 0.4128 12.7391 0.448074C8.20192 0.448074 4.05274 3.00549 2.01562 7.06207L6.00166 10.153C6.94967 7.309 9.6085 5.19693 12.7391 5.19693Z" fill="#EA4335"/>
</g>
<defs>
<clipPath id="clip0_319_20">
<rect width="24" height="24" fill="white" transform="translate(0.5 0.447266)"/>
</clipPath>
</defs>
</svg>
