<svg width="19" height="20" viewBox="0 0 19 20" fill="none" xmlns="http://www.w3.org/2000/svg">
<path d="M9.5 1.67798C12.7132 1.67798 15.4375 4.39184 15.4375 7.68427C15.4375 11.0291 12.6689 13.3764 10.1116 14.9726C9.9252 15.0799 9.71446 15.1363 9.5 15.1363C9.28554 15.1363 9.0748 15.0799 8.88844 14.9726C6.33591 13.3608 3.5625 11.0407 3.5625 7.68427C3.5625 4.39184 6.28678 1.67798 9.5 1.67798Z" fill="#FF5200" stroke="#FF5200" stroke-width="1.1875"/>
<path d="M14.25 15.928C14.25 16.8025 12.1233 17.5113 9.5 17.5113C6.87665 17.5113 4.75 16.8025 4.75 15.928" stroke="#FF5200" stroke-width="1.1875" stroke-linecap="round"/>
<path d="M11.875 7.61548C11.875 8.92719 10.8117 9.99048 9.5 9.99048C8.18829 9.99048 7.125 8.92719 7.125 7.61548C7.125 6.30381 8.18829 5.24048 9.5 5.24048C10.8117 5.24048 11.875 6.30381 11.875 7.61548Z" fill="white" stroke="white" stroke-width="1.1875"/>
</svg>
