<svg width="24" height="25" viewBox="0 0 24 25" fill="none" xmlns="http://www.w3.org/2000/svg">
<path d="M12 2.5C16.0588 2.5 19.5 5.92803 19.5 10.0869C19.5 14.312 16.0028 17.277 12.7725 19.2932C12.5371 19.4287 12.2709 19.5 12 19.5C11.7291 19.5 11.4629 19.4287 11.2275 19.2932C8.00325 17.2573 4.5 14.3266 4.5 10.0869C4.5 5.92803 7.9412 2.5 12 2.5Z" stroke="#06C167" stroke-width="1.5"/>
<path d="M18 20.5C18 21.6046 15.3137 22.5 12 22.5C8.68629 22.5 6 21.6046 6 20.5" stroke="#06C167" stroke-width="1.5" stroke-linecap="round"/>
<path d="M15 10C15 11.6569 13.6569 13 12 13C10.3431 13 9 11.6569 9 10C9 8.34315 10.3431 7 12 7C13.6569 7 15 8.34315 15 10Z" stroke="#06C167" stroke-width="1.5"/>
</svg>
