<svg width="9" height="11" viewBox="0 0 9 11" fill="none" xmlns="http://www.w3.org/2000/svg">
<path d="M0.928789 8.11807C0.29154 7.14457 -0.0494783 6.11546 0.00582163 4.97566C0.122491 2.57096 1.83949 0.649952 4.20707 0.258207C5.66396 0.0171462 6.95132 0.420804 8.12655 1.26481C8.20182 1.31886 8.25775 1.39984 8.33181 1.47792C8.14056 1.90835 7.75905 2.30238 8.10865 2.82741C8.13359 2.86486 7.87845 3.20485 7.75923 3.20151C7.32126 3.1892 7.26175 3.42631 7.26424 3.76612C7.26678 4.1144 7.14443 4.3732 6.76916 4.47551C6.48298 4.55352 6.40429 4.76816 6.54583 5.02294C6.71235 5.32268 6.7222 5.55437 6.52624 5.88333C6.31311 6.24111 6.70247 6.46518 6.93464 6.69931C7.06361 6.82937 7.15042 7.00084 7.2773 7.13349C7.38651 7.24766 7.51409 7.39326 7.65369 7.42006C8.05025 7.49618 8.34314 7.58351 8.24895 8.10749C8.22035 8.26662 8.4208 8.46693 8.54678 8.70616C7.28993 9.96625 5.71712 10.4454 3.89313 10.0587C2.67473 9.80045 1.70405 9.13302 0.928789 8.11807Z" fill="white"/>
</svg>
