<svg width="21" height="20" viewBox="0 0 21 20" fill="none" xmlns="http://www.w3.org/2000/svg">
<path d="M13.5905 6.94208C14.3762 7.72064 13.1192 14.0523 11.8292 14.1639C10.7471 14.2575 10.4098 12.1231 10.1819 11.4467C9.95699 10.779 9.70665 10.5387 9.04457 10.3196C7.36245 9.76321 6.5214 9.48496 6.35488 9.04438C5.91395 7.87777 12.587 5.94772 13.5905 6.94208Z" stroke="#068BEE" stroke-width="1.25"/>
<path d="M18.8327 9.99996C18.8327 14.6023 15.1017 18.3333 10.4993 18.3333C5.89697 18.3333 2.16602 14.6023 2.16602 9.99996C2.16602 5.39758 5.89697 1.66663 10.4993 1.66663C15.1017 1.66663 18.8327 5.39758 18.8327 9.99996Z" stroke="#068BEE" stroke-width="1.25"/>
</svg>
