<svg width="24" height="24" viewBox="0 0 24 24" fill="none" xmlns="http://www.w3.org/2000/svg">
<path d="M12 1.49512C17.8017 1.49512 22.5049 6.19825 22.5049 12C22.5049 17.8017 17.8017 22.5049 12 22.5049C6.19825 22.5049 1.49512 17.8017 1.49512 12C1.49512 6.19825 6.19825 1.49512 12 1.49512Z" fill="white" stroke="black" stroke-width="0.99"/>
<path d="M15.8504 10.35C15.8504 12.4763 14.1267 14.2 12.0004 14.2C9.87407 14.2 8.15039 12.4763 8.15039 10.35C8.15039 8.22371 9.87407 6.5 12.0004 6.5C14.1267 6.5 15.8504 8.22371 15.8504 10.35Z" fill="black"/>
<path d="M4.74023 20.2499L5.36616 18.9554C6.36046 16.8991 8.21089 15.6299 10.215 15.6299H13.7855C15.7896 15.6299 17.64 16.8991 18.6343 18.9554L19.2602 20.2499" fill="black"/>
<path d="M6.49859 18.1606H17.4986L17.9386 20.9107L11.9986 22.5606L6.05859 20.9107L6.49859 18.1606Z" fill="black"/>
</svg>
