<svg width="14" height="14" viewBox="0 0 14 14" fill="none" xmlns="http://www.w3.org/2000/svg">
<path d="M1.16602 12.8334H7.58268C10.4822 12.8334 12.8327 10.4829 12.8327 7.58337C12.8327 4.68388 10.4822 2.33337 7.58268 2.33337C4.88036 2.33337 2.62286 4.37507 2.33268 7.00004" stroke="#FF5200" stroke-width="1.13" stroke-linecap="round"/>
<path d="M10.7923 3.20833L11.3757 2.625M3.20898 2.625L3.79232 3.20833" stroke="#FF5200" stroke-width="1.13" stroke-linecap="round" stroke-linejoin="round"/>
<path d="M9.62435 5.25L7.90976 6.96463M7.90976 6.96463C7.75138 6.80626 7.53263 6.70832 7.29102 6.70832C6.80778 6.70832 6.41602 7.10008 6.41602 7.58332C6.41602 8.06661 6.80778 8.45832 7.29102 8.45832C7.77425 8.45832 8.16602 8.06661 8.16602 7.58332C8.16602 7.3417 8.06807 7.12295 7.90976 6.96463Z" stroke="#FF5200" stroke-width="1.13" stroke-linecap="round"/>
<path d="M7.29102 2.04163V1.16663" stroke="#FF5200" stroke-width="1.13" stroke-linecap="round" stroke-linejoin="round"/>
<path d="M6.125 1.16663H8.45833" stroke="#FF5200" stroke-width="1.13" stroke-linecap="round" stroke-linejoin="round"/>
<path d="M1.16602 8.75H2.91602" stroke="#FF5200" stroke-width="1.13" stroke-linecap="round" stroke-linejoin="round"/>
<path d="M1.16602 11.0834H4.08268" stroke="#FF5200" stroke-width="1.13" stroke-linecap="round" stroke-linejoin="round"/>
</svg>
