<svg width="24" height="24" viewBox="0 0 24 24" fill="none" xmlns="http://www.w3.org/2000/svg">
<rect width="24" height="24" rx="12" fill="#DBEAFE"/>
<path d="M14.5 12.002C14.5 13.3827 13.3807 14.502 12 14.502C10.6193 14.502 9.5 13.3827 9.5 12.002C9.5 10.6213 10.6193 9.50195 12 9.50195C13.3807 9.50195 14.5 10.6213 14.5 12.002Z" stroke="#2563EB" stroke-width="2" stroke-linecap="round" stroke-linejoin="round"/>
<path d="M18.5 11.49V11.5" stroke="#2563EB" stroke-width="2" stroke-linecap="round" stroke-linejoin="round"/>
<path d="M5.5 12.49V12.5" stroke="#2563EB" stroke-width="2" stroke-linecap="round" stroke-linejoin="round"/>
<path d="M16 5.00195C18.4794 5.00195 20.1903 5.38615 21.1329 5.67827C21.6756 5.84646 22 6.36084 22 6.929V16.6843C22 17.7994 20.7719 18.6384 19.6762 18.4315C18.7361 18.254 17.5107 18.1114 16 18.1114C11.2491 18.1114 10.1096 19.9171 3.1448 18.3812C2.47265 18.233 2 17.6285 2 16.9402V6.92311C2 5.94725 2.92079 5.23561 3.87798 5.42555C10.1967 6.67941 11.4209 5.00195 16 5.00195Z" stroke="#2563EB" stroke-width="2" stroke-linecap="round" stroke-linejoin="round"/>
</svg>
