<svg width="260" height="79" viewBox="0 0 260 79" fill="none" xmlns="http://www.w3.org/2000/svg">
<g clip-path="url(#clip0_48_927)">
<g filter="url(#filter0_d_48_927)">
<path d="M226.741 64.8312C226.74 63.9953 227.172 63.1723 227.902 62.7643C228.192 62.6018 228.486 62.4776 228.787 62.4549C230.58 62.3201 232.395 62.3564 234.193 62.4676C236.163 62.5895 235.495 60.8932 236.02 60.0219C235.437 59.6728 234.837 59.0003 234.276 59.0315C232.055 59.1547 231.028 58.0346 230.462 56.0628C227.882 47.0695 225.24 38.0938 222.66 29.1003C222.073 27.052 221.576 24.9714 221.166 22.8805C220.841 21.2286 221.735 20.4494 223.35 20.458C225.586 20.4699 227.821 20.5364 230.057 20.529C232.13 20.5222 233.327 21.482 233.878 23.498C235.316 28.751 236.841 33.9799 238.327 39.2196C238.476 39.7466 238.511 40.3288 238.765 40.7956C238.934 41.1079 239.407 41.4478 239.725 41.4307C240.016 41.4152 240.465 40.9756 240.533 40.6565C241.699 35.2 242.856 29.741 243.928 24.2654C244.467 21.5106 245.248 20.6711 248.052 20.555C250.217 20.4653 252.391 20.418 254.556 20.5009C256.76 20.5854 257.352 21.455 256.91 23.6329C256.446 25.9189 255.976 28.2039 255.491 30.4855C253.759 38.6329 252.094 46.7956 250.257 54.9194C248.877 61.0227 247.459 67.1299 245.69 73.1271C244.827 76.0541 244.502 77.0786 240.815 76.6519C237.185 76.2318 233.499 76.3143 229.839 76.1351C229.461 76.1166 229.084 76.0761 228.703 76.0088C227.529 75.801 226.806 74.684 226.79 73.4912C226.751 70.5087 226.744 67.6606 226.741 64.8312Z" fill="white"/>
</g>
<g filter="url(#filter1_d_48_927)">
<path d="M61.9028 42.859C66.1773 35.7058 70.4495 28.7098 74.5178 21.5972C76.2033 18.6504 82.1157 17.8499 84.4078 21.6228C87.5504 26.7957 90.6346 32.0043 93.7203 37.2116C95.99 41.0419 98.1545 44.9363 100.496 48.7215C101.878 50.9551 101.969 53.0445 100.683 55.3182C99.5099 57.3914 97.6744 58.1712 95.4576 58.2036C91.7864 58.2573 88.1137 58.2385 84.4419 58.2118C81.9425 58.1936 80.3973 56.6382 80.3088 54.1821C80.2085 51.4009 79.9679 48.6184 80.0254 45.8414C80.0434 44.9726 80.6221 43.8726 81.3007 43.3036C83.7927 41.2139 84.0198 35.7856 81.564 33.5896C80.331 32.4871 78.6858 32.6207 77.4136 33.6972C75.2454 35.5318 74.7107 40.925 77.3731 42.8248C78.6088 43.7065 78.9612 44.8783 78.848 46.3688C78.6375 49.1404 78.6066 51.9252 78.4297 54.7C78.3093 56.5898 76.6681 58.1842 74.7501 58.2135C70.9546 58.2715 67.1575 58.2218 63.3611 58.2359C59.2586 58.251 55.3675 53.3356 58.2714 48.9512C59.5499 47.0209 60.6416 44.9669 61.9028 42.859Z" fill="white"/>
</g>
<g filter="url(#filter2_d_48_927)">
<path d="M99.7133 35.3749C103.988 42.528 108.26 49.5241 112.328 56.6367C114.014 59.5834 119.926 60.384 122.218 56.6111C125.361 51.4382 128.445 46.2296 131.531 41.0223C133.801 37.192 135.965 33.2976 138.307 29.5124C139.689 27.2788 139.78 25.1894 138.493 22.9157C137.32 20.8425 135.485 20.0626 133.268 20.0303C129.597 19.9766 125.924 19.9954 122.252 20.0221C119.753 20.0403 118.208 21.5957 118.119 24.0518C118.019 26.833 117.778 29.6154 117.836 32.3924C117.854 33.2613 118.433 34.3613 119.111 34.9303C121.603 37.02 121.83 42.4483 119.375 44.6443C118.142 45.7468 116.496 45.6132 115.224 44.5367C113.056 42.7021 112.521 37.3089 115.184 35.4091C116.419 34.5274 116.772 33.3556 116.659 31.8651C116.448 29.0935 116.417 26.3087 116.24 23.5339C116.12 21.6441 114.479 20.0497 112.561 20.0204C108.765 19.9624 104.968 20.012 101.172 19.998C97.0691 19.9828 93.178 24.8983 96.0819 29.2827C97.3604 31.213 98.4522 33.267 99.7133 35.3749Z" fill="white"/>
</g>
<g filter="url(#filter3_d_48_927)">
<path d="M6.60511 50.8831C4.11554 47.0798 2.78326 43.0594 2.99931 38.6064C3.4551 29.2119 10.163 21.707 19.4125 20.1765C25.1042 19.2348 30.1336 20.8118 34.725 24.1091C35.019 24.3203 35.2375 24.6366 35.5269 24.9417C34.7797 26.6232 33.2892 28.1626 34.655 30.2138C34.7525 30.3601 33.7557 31.6884 33.2899 31.6753C31.5789 31.6272 31.3464 32.5535 31.3561 33.8811C31.3661 35.2417 30.8881 36.2528 29.422 36.6525C28.3039 36.9573 27.9965 37.7958 28.5495 38.7912C29.2001 39.9622 29.2385 40.8673 28.473 42.1525C27.6403 43.5503 29.1614 44.4256 30.0685 45.3403C30.5723 45.8484 30.9115 46.5183 31.4072 47.0366C31.8338 47.4826 32.3322 48.0514 32.8776 48.1561C34.4269 48.4535 35.5711 48.7947 35.2032 50.8417C35.0914 51.4634 35.8745 52.246 36.3667 53.1806C31.4565 58.1035 25.3119 59.9754 18.1861 58.4648C13.426 57.4557 9.63386 54.8482 6.60511 50.8831Z" fill="white"/>
</g>
<g filter="url(#filter4_d_48_927)">
<path d="M206.195 58.983C204.082 58.981 202.153 58.9871 200.224 58.9752C197.176 58.9563 195.774 57.5664 195.773 54.5732C195.772 48.1727 195.773 41.7721 195.773 35.1112C194.381 35.1112 193.1 35.1353 191.821 35.1057C189.814 35.0593 189.095 34.3878 189.077 32.4568C189.046 29.2843 189.06 26.1113 189.077 22.9386C189.085 21.3811 189.801 20.5036 191.46 20.5414C192.816 20.5724 194.173 20.5477 195.774 20.5477C195.774 19.4245 195.802 18.4533 195.769 17.484C195.689 15.1062 196.566 13.3171 198.826 12.3304C201.138 11.321 203.445 10.3005 205.753 9.28041C207.134 8.6699 208.103 9.17394 208.421 10.5408C208.711 11.7882 208.757 13.1058 208.794 14.3958C208.852 16.3731 208.809 18.3532 208.809 20.548C210.916 20.548 212.887 20.5959 214.855 20.533C216.442 20.4822 217.093 21.1349 217.062 22.7386C216.997 26.0346 217.02 29.3329 217.051 32.6298C217.068 34.3461 216.243 35.1223 214.571 35.1144C212.718 35.1057 210.866 35.1124 208.817 35.1124C208.817 37.7702 208.737 40.3062 208.892 42.8276C208.92 43.2761 209.902 43.9763 210.487 44.023C212.403 44.1765 214.34 44.1153 216.267 44.073C217.813 44.039 218.527 45.0643 218.416 46.268C218.132 49.3276 217.687 52.3859 217.073 55.3968C216.583 57.794 215.68 58.4373 213.261 58.6216C210.971 58.7962 208.674 58.8668 206.195 58.983Z" fill="white"/>
</g>
<g filter="url(#filter5_d_48_927)">
<path d="M164.706 35.1315C163.399 35.1246 162.091 35.1406 160.785 35.1055C158.805 35.0524 158.067 34.351 158.05 32.4365C158.022 29.2619 158.051 26.0868 158.04 22.9119C158.034 21.2916 158.832 20.529 160.437 20.5458C161.794 20.56 163.152 20.5487 164.743 20.5487C164.743 19.1527 164.683 17.9297 164.757 16.7149C164.864 14.9682 165.475 13.4617 167.188 12.6668C169.592 11.5517 171.983 10.4027 174.425 9.37886C176.181 8.64302 177.146 9.08817 177.431 11.0555C177.766 13.3678 177.69 15.7403 177.777 18.0873C177.804 18.8251 177.781 19.5647 177.781 20.548C179.798 20.548 181.706 20.6081 183.608 20.5302C185.319 20.4601 186.121 21.045 186.066 22.8851C185.968 26.1193 186.011 29.3589 186.049 32.5956C186.07 34.3052 185.284 35.1176 183.597 35.1136C181.739 35.1093 179.882 35.1126 177.808 35.1126C177.808 37.8276 177.74 40.4207 177.882 43.0023C177.903 43.3895 178.89 43.9903 179.464 44.0313C181.322 44.164 183.198 44.1451 185.062 44.0647C186.828 43.9885 187.533 45.0792 187.392 46.4778C187.069 49.699 186.588 52.9154 185.955 56.0905C185.586 57.9389 183.897 58.5268 182.252 58.6017C177.72 58.808 173.181 58.8644 168.645 58.9765C167.22 59.0118 165.964 58.2532 165.139 56.99C164.843 56.5367 164.742 55.9905 164.742 55.4493C164.739 49.2483 164.735 43.5419 164.706 37.5931C164.702 36.8121 164.842 35.9119 164.706 35.1315Z" fill="white"/>
</g>
<g filter="url(#filter6_d_48_927)">
<path d="M42.0974 58.5177C41.6899 58.5198 41.277 58.4549 40.9319 58.2384C39.9233 57.6059 39.5812 56.6348 39.59 55.2877C39.6519 45.7718 39.6207 36.2554 39.6222 26.7391C39.6227 23.5938 40.4256 22.5929 43.5444 22.0213C47.3778 21.3188 51.2206 20.6673 55.0616 20.0073C55.5485 19.9237 56.0493 19.8916 56.5441 19.8875C59.8895 19.8592 61.1891 21.0447 61.246 24.3761C61.2974 27.3845 61.7338 30.5216 59.9207 33.1944C59.3469 34.0401 58.1972 34.5886 57.2022 35.0249C56.4422 35.3582 55.505 35.4278 54.6564 35.3911C52.4778 35.297 52.3184 36.7623 52.3114 38.3068C52.2861 43.8423 52.2253 50.1268 52.3485 55.6597C52.3747 56.8365 51.3316 57.8135 50.7687 58.2538C50.5467 58.4275 50.2715 58.5051 49.9897 58.505C48.6719 58.5046 44.6244 58.5046 42.0974 58.5177Z" fill="white"/>
</g>
<g filter="url(#filter7_d_48_927)">
<path d="M143.073 22.1237C143.074 21.9796 143.116 21.8393 143.201 21.7229C143.444 21.3913 143.985 20.7186 144.382 20.7171C147.415 20.7056 150.576 20.7148 153.625 20.7167C154.271 20.7172 155.005 21.0216 155.034 21.6661C155.04 21.8022 155.032 21.776 155.031 21.8464C154.801 34.853 155.023 44.1117 155.041 55.1571C155.042 55.6366 155.037 56.4896 155.033 57.0894C155.03 57.5306 154.905 57.969 154.604 58.2922C154.339 58.5772 153.991 58.8717 153.681 58.8717C153.081 58.8717 147.635 58.975 144.613 58.9133C144.382 58.9086 144.021 58.6473 143.707 58.3752C143.28 58.0051 143.074 57.4616 143.074 56.8964C143.075 52.6697 143.075 34.0695 143.063 24.2584C143.062 23.6913 143.069 22.5923 143.073 22.1237Z" fill="white"/>
</g>
<g filter="url(#filter8_d_48_927)">
<path d="M154.023 4.4709C154.464 4.47046 154.909 4.55094 155.273 4.79907C156.432 5.58937 156.715 6.77614 155.949 8.14026C154.432 10.8442 152.876 13.5288 151.259 16.1737C150.213 17.8836 148.291 18.1745 147.163 16.5228C145.148 13.5726 143.392 10.4277 141.783 7.23545C141.623 6.91738 142.04 6.09683 142.442 5.43161C142.815 4.81357 143.497 4.47039 144.219 4.47078C146.37 4.47195 151.06 4.47393 154.023 4.4709Z" fill="white"/>
</g>
</g>
<defs>
<filter id="filter0_d_48_927" x="212.433" y="15.2579" width="53.2806" height="73.6201" filterUnits="userSpaceOnUse" color-interpolation-filters="sRGB">
<feFlood flood-opacity="0" result="BackgroundImageFix"/>
<feColorMatrix in="SourceAlpha" type="matrix" values="0 0 0 0 0 0 0 0 0 0 0 0 0 0 0 0 0 0 127 0" result="hardAlpha"/>
<feOffset dy="3.46667"/>
<feGaussianBlur stdDeviation="4.33333"/>
<feComposite in2="hardAlpha" operator="out"/>
<feColorMatrix type="matrix" values="0 0 0 0 0 0 0 0 0 0 0 0 0 0 0 0 0 0 0.4 0"/>
<feBlend mode="normal" in2="BackgroundImageFix" result="effect1_dropShadow_48_927"/>
<feBlend mode="normal" in="SourceGraphic" in2="effect1_dropShadow_48_927" result="shape"/>
</filter>
<filter id="filter1_d_48_927" x="48.597" y="13.8818" width="61.6615" height="56.494" filterUnits="userSpaceOnUse" color-interpolation-filters="sRGB">
<feFlood flood-opacity="0" result="BackgroundImageFix"/>
<feColorMatrix in="SourceAlpha" type="matrix" values="0 0 0 0 0 0 0 0 0 0 0 0 0 0 0 0 0 0 127 0" result="hardAlpha"/>
<feOffset dy="3.46667"/>
<feGaussianBlur stdDeviation="4.33333"/>
<feComposite in2="hardAlpha" operator="out"/>
<feColorMatrix type="matrix" values="0 0 0 0 0 0 0 0 0 0 0 0 0 0 0 0 0 0 0.4 0"/>
<feBlend mode="normal" in2="BackgroundImageFix" result="effect1_dropShadow_48_927"/>
<feBlend mode="normal" in="SourceGraphic" in2="effect1_dropShadow_48_927" result="shape"/>
</filter>
<filter id="filter2_d_48_927" x="86.4076" y="14.7915" width="61.6615" height="56.494" filterUnits="userSpaceOnUse" color-interpolation-filters="sRGB">
<feFlood flood-opacity="0" result="BackgroundImageFix"/>
<feColorMatrix in="SourceAlpha" type="matrix" values="0 0 0 0 0 0 0 0 0 0 0 0 0 0 0 0 0 0 127 0" result="hardAlpha"/>
<feOffset dy="3.46667"/>
<feGaussianBlur stdDeviation="4.33333"/>
<feComposite in2="hardAlpha" operator="out"/>
<feColorMatrix type="matrix" values="0 0 0 0 0 0 0 0 0 0 0 0 0 0 0 0 0 0 0.4 0"/>
<feBlend mode="normal" in2="BackgroundImageFix" result="effect1_dropShadow_48_927"/>
<feBlend mode="normal" in="SourceGraphic" in2="effect1_dropShadow_48_927" result="shape"/>
</filter>
<filter id="filter3_d_48_927" x="-5.6901" y="14.707" width="50.724" height="56.4008" filterUnits="userSpaceOnUse" color-interpolation-filters="sRGB">
<feFlood flood-opacity="0" result="BackgroundImageFix"/>
<feColorMatrix in="SourceAlpha" type="matrix" values="0 0 0 0 0 0 0 0 0 0 0 0 0 0 0 0 0 0 127 0" result="hardAlpha"/>
<feOffset dy="3.46667"/>
<feGaussianBlur stdDeviation="4.33333"/>
<feComposite in2="hardAlpha" operator="out"/>
<feColorMatrix type="matrix" values="0 0 0 0 0 0 0 0 0 0 0 0 0 0 0 0 0 0 0.4 0"/>
<feBlend mode="normal" in2="BackgroundImageFix" result="effect1_dropShadow_48_927"/>
<feBlend mode="normal" in="SourceGraphic" in2="effect1_dropShadow_48_927" result="shape"/>
</filter>
<filter id="filter4_d_48_927" x="180.392" y="3.82417" width="46.7025" height="67.2922" filterUnits="userSpaceOnUse" color-interpolation-filters="sRGB">
<feFlood flood-opacity="0" result="BackgroundImageFix"/>
<feColorMatrix in="SourceAlpha" type="matrix" values="0 0 0 0 0 0 0 0 0 0 0 0 0 0 0 0 0 0 127 0" result="hardAlpha"/>
<feOffset dy="3.46667"/>
<feGaussianBlur stdDeviation="4.33333"/>
<feComposite in2="hardAlpha" operator="out"/>
<feColorMatrix type="matrix" values="0 0 0 0 0 0 0 0 0 0 0 0 0 0 0 0 0 0 0.4 0"/>
<feBlend mode="normal" in2="BackgroundImageFix" result="effect1_dropShadow_48_927"/>
<feBlend mode="normal" in="SourceGraphic" in2="effect1_dropShadow_48_927" result="shape"/>
</filter>
<filter id="filter5_d_48_927" x="149.37" y="3.84468" width="46.7064" height="67.2663" filterUnits="userSpaceOnUse" color-interpolation-filters="sRGB">
<feFlood flood-opacity="0" result="BackgroundImageFix"/>
<feColorMatrix in="SourceAlpha" type="matrix" values="0 0 0 0 0 0 0 0 0 0 0 0 0 0 0 0 0 0 127 0" result="hardAlpha"/>
<feOffset dy="3.46667"/>
<feGaussianBlur stdDeviation="4.33333"/>
<feComposite in2="hardAlpha" operator="out"/>
<feColorMatrix type="matrix" values="0 0 0 0 0 0 0 0 0 0 0 0 0 0 0 0 0 0 0.4 0"/>
<feBlend mode="normal" in2="BackgroundImageFix" result="effect1_dropShadow_48_927"/>
<feBlend mode="normal" in="SourceGraphic" in2="effect1_dropShadow_48_927" result="shape"/>
</filter>
<filter id="filter6_d_48_927" x="30.9232" y="14.687" width="39.0716" height="55.9641" filterUnits="userSpaceOnUse" color-interpolation-filters="sRGB">
<feFlood flood-opacity="0" result="BackgroundImageFix"/>
<feColorMatrix in="SourceAlpha" type="matrix" values="0 0 0 0 0 0 0 0 0 0 0 0 0 0 0 0 0 0 127 0" result="hardAlpha"/>
<feOffset dy="3.46667"/>
<feGaussianBlur stdDeviation="4.33333"/>
<feComposite in2="hardAlpha" operator="out"/>
<feColorMatrix type="matrix" values="0 0 0 0 0 0 0 0 0 0 0 0 0 0 0 0 0 0 0.4 0"/>
<feBlend mode="normal" in2="BackgroundImageFix" result="effect1_dropShadow_48_927"/>
<feBlend mode="normal" in="SourceGraphic" in2="effect1_dropShadow_48_927" result="shape"/>
</filter>
<filter id="filter7_d_48_927" x="134.396" y="15.5114" width="29.3118" height="55.5549" filterUnits="userSpaceOnUse" color-interpolation-filters="sRGB">
<feFlood flood-opacity="0" result="BackgroundImageFix"/>
<feColorMatrix in="SourceAlpha" type="matrix" values="0 0 0 0 0 0 0 0 0 0 0 0 0 0 0 0 0 0 127 0" result="hardAlpha"/>
<feOffset dy="3.46667"/>
<feGaussianBlur stdDeviation="4.33333"/>
<feComposite in2="hardAlpha" operator="out"/>
<feColorMatrix type="matrix" values="0 0 0 0 0 0 0 0 0 0 0 0 0 0 0 0 0 0 0.4 0"/>
<feBlend mode="normal" in2="BackgroundImageFix" result="effect1_dropShadow_48_927"/>
<feBlend mode="normal" in="SourceGraphic" in2="effect1_dropShadow_48_927" result="shape"/>
</filter>
<filter id="filter8_d_48_927" x="133.081" y="-0.729174" width="31.9622" height="30.4827" filterUnits="userSpaceOnUse" color-interpolation-filters="sRGB">
<feFlood flood-opacity="0" result="BackgroundImageFix"/>
<feColorMatrix in="SourceAlpha" type="matrix" values="0 0 0 0 0 0 0 0 0 0 0 0 0 0 0 0 0 0 127 0" result="hardAlpha"/>
<feOffset dy="3.46667"/>
<feGaussianBlur stdDeviation="4.33333"/>
<feComposite in2="hardAlpha" operator="out"/>
<feColorMatrix type="matrix" values="0 0 0 0 0 0 0 0 0 0 0 0 0 0 0 0 0 0 0.4 0"/>
<feBlend mode="normal" in2="BackgroundImageFix" result="effect1_dropShadow_48_927"/>
<feBlend mode="normal" in="SourceGraphic" in2="effect1_dropShadow_48_927" result="shape"/>
</filter>
<clipPath id="clip0_48_927">
<rect width="260" height="78" fill="white" transform="translate(0 0.723633)"/>
</clipPath>
</defs>
</svg>
