<svg width="25" height="24" viewBox="0 0 25 24" fill="none" xmlns="http://www.w3.org/2000/svg">
<path d="M3.27423 11.1439C2.27108 12.2643 2.2495 13.9546 3.17016 15.1437C4.99711 17.5033 6.99674 19.5029 9.35633 21.3298C10.5454 22.2505 12.2357 22.2289 13.3561 21.2258C16.3979 18.5022 19.1835 15.6559 21.8719 12.5279C22.1377 12.2187 22.3039 11.8397 22.3412 11.4336C22.5062 9.63798 22.8452 4.46467 21.4403 3.05974C20.0353 1.65481 14.862 1.99377 13.0664 2.15876C12.6603 2.19608 12.2813 2.36233 11.972 2.62811C8.84412 5.31646 5.99781 8.10211 3.27423 11.1439Z" fill="#FF5200" stroke="#FF5200" stroke-width="1.5"/>
<path d="M11.4961 10H11.5111H11.4961ZM11.4998 16H11.5148H11.4998Z" fill="white"/>
<path d="M11.4961 10H11.5111M11.4998 16H11.5148" stroke="white" stroke-width="2" stroke-linecap="round" stroke-linejoin="round"/>
<path d="M7.5 13H15.5H7.5Z" fill="white"/>
<path d="M7.5 13H15.5" stroke="white" stroke-width="1.5" stroke-linecap="round" stroke-linejoin="round"/>
<path d="M18 5C18.8284 5 19.5 5.67157 19.5 6.5C19.5 7.32843 18.8284 8 18 8C17.1716 8 16.5 7.32843 16.5 6.5C16.5 5.67157 17.1716 5 18 5Z" fill="white" stroke="white" stroke-width="1.5" stroke-linecap="round" stroke-linejoin="round"/>
</svg>
