<svg width="25" height="24" viewBox="0 0 25 24" fill="none" xmlns="http://www.w3.org/2000/svg">
<path d="M16 18C16 19.933 14.433 21.5 12.5 21.5C10.567 21.5 9 19.933 9 18" stroke="#6D6D6D" stroke-width="1.5" stroke-linecap="round" stroke-linejoin="round"/>
<path d="M19.7311 18H5.26887C4.29195 18 3.5 17.208 3.5 16.2311C3.5 15.762 3.68636 15.3121 4.01809 14.9803L4.62132 14.3771C5.18393 13.8145 5.5 13.0514 5.5 12.2558V9.5C5.5 5.63401 8.63401 2.5 12.5 2.5C16.366 2.5 19.5 5.634 19.5 9.5V12.2558C19.5 13.0514 19.8161 13.8145 20.3787 14.3771L20.9819 14.9803C21.3136 15.3121 21.5 15.762 21.5 16.2311C21.5 17.208 20.708 18 19.7311 18Z" stroke="#6D6D6D" stroke-width="1.5" stroke-linecap="round" stroke-linejoin="round"/>
</svg>
